REM DIRINDEX 1\2,1\4,1\5,1\6,1\7,1\3\8,1\3\9,1\3\10
REM DIRNAME cjc113,folder01,folder02,folder03,folder04,folder05,folder06,folder07,folder08,folder09
TITLE ""
FILE "DB4500_5th_3B_15.mp3" MP3
  TRACK 01 AUDIO
    TITLE "0:"
    INDEX 01 00:00:00
  TRACK 02 AUDIO
    TITLE "8:cjc113_2338"
    INDEX 01 00:00:01
  TRACK 03 AUDIO
    TITLE "0:"
    INDEX 01 00:01:26
  TRACK 04 AUDIO
    TITLE "9:cjc113_2339"
    INDEX 01 00:01:50
  TRACK 05 AUDIO
    TITLE "0:"
    INDEX 01 00:02:57
  TRACK 06 AUDIO
    TITLE "10:cjc113_2340"
    INDEX 01 00:03:04
  TRACK 07 AUDIO
    TITLE "0:"
    INDEX 01 00:07:41
  TRACK 08 AUDIO
    TITLE "8:cjc113_2341"
    INDEX 01 00:08:13
  TRACK 09 AUDIO
    TITLE "0:"
    INDEX 01 00:09:18
  TRACK 10 AUDIO
    TITLE "9:cjc113_2342"
    INDEX 01 00:09:42
  TRACK 11 AUDIO
    TITLE "0:"
    INDEX 01 00:10:68
  TRACK 12 AUDIO
    TITLE "10:cjc113_2343"
    INDEX 01 00:11:17
  TRACK 13 AUDIO
    TITLE "0:"
    INDEX 01 00:15:50
  TRACK 14 AUDIO
    TITLE "8:cjc113_2344"
    INDEX 01 00:16:22
  TRACK 15 AUDIO
    TITLE "0:"
    INDEX 01 00:17:25
  TRACK 16 AUDIO
    TITLE "9:cjc113_2345"
    INDEX 01 00:17:47
  TRACK 17 AUDIO
    TITLE "0:"
    INDEX 01 00:19:03
  TRACK 18 AUDIO
    TITLE "10:cjc113_2346"
    INDEX 01 00:19:24
  TRACK 19 AUDIO
    TITLE "0:"
    INDEX 01 00:23:16
  TRACK 20 AUDIO
    TITLE "8:cjc113_2347"
    INDEX 01 00:23:61
  TRACK 21 AUDIO
    TITLE "0:"
    INDEX 01 00:25:15
  TRACK 22 AUDIO
    TITLE "9:cjc113_2348"
    INDEX 01 00:25:37
  TRACK 23 AUDIO
    TITLE "0:"
    INDEX 01 00:26:62
  TRACK 24 AUDIO
    TITLE "10:cjc113_2349"
    INDEX 01 00:27:12
  TRACK 25 AUDIO
    TITLE "0:"
    INDEX 01 00:30:38
  TRACK 26 AUDIO
    TITLE "8:cjc113_2350"
    INDEX 01 00:31:10
  TRACK 27 AUDIO
    TITLE "0:"
    INDEX 01 00:32:39
  TRACK 28 AUDIO
    TITLE "9:cjc113_2351"
    INDEX 01 00:32:60
  TRACK 29 AUDIO
    TITLE "0:"
    INDEX 01 00:34:12
  TRACK 30 AUDIO
    TITLE "10:cjc113_2352"
    INDEX 01 00:34:34
  TRACK 31 AUDIO
    TITLE "0:"
    INDEX 01 00:37:54
  TRACK 32 AUDIO
    TITLE "8:cjc113_2353"
    INDEX 01 00:38:30
  TRACK 33 AUDIO
    TITLE "0:"
    INDEX 01 00:39:45
  TRACK 34 AUDIO
    TITLE "9:cjc113_2354"
    INDEX 01 00:39:66
  TRACK 35 AUDIO
    TITLE "0:"
    INDEX 01 00:41:24
  TRACK 36 AUDIO
    TITLE "10:cjc113_2355"
    INDEX 01 00:41:44
  TRACK 37 AUDIO
    TITLE "0:"
    INDEX 01 00:44:50
  TRACK 38 AUDIO
    TITLE "8:cjc113_2356"
    INDEX 01 00:45:26
  TRACK 39 AUDIO
    TITLE "0:"
    INDEX 01 00:46:60
  TRACK 40 AUDIO
    TITLE "9:cjc113_2357"
    INDEX 01 00:47:07
  TRACK 41 AUDIO
    TITLE "0:"
    INDEX 01 00:48:63
  TRACK 42 AUDIO
    TITLE "10:cjc113_2358"
    INDEX 01 00:49:12
  TRACK 43 AUDIO
    TITLE "0:"
    INDEX 01 00:52:59
  TRACK 44 AUDIO
    TITLE "8:cjc113_2359"
    INDEX 01 00:53:31
  TRACK 45 AUDIO
    TITLE "0:"
    INDEX 01 00:54:46
  TRACK 46 AUDIO
    TITLE "9:cjc113_2360"
    INDEX 01 00:54:68
  TRACK 47 AUDIO
    TITLE "0:"
    INDEX 01 00:56:39
  TRACK 48 AUDIO
    TITLE "10:cjc113_2361"
    INDEX 01 00:56:55
  TRACK 49 AUDIO
    TITLE "0:"
    INDEX 01 01:01:03
  TRACK 50 AUDIO
    TITLE "8:cjc113_2362"
    INDEX 01 01:01:52
  TRACK 51 AUDIO
    TITLE "0:"
    INDEX 01 01:02:48
  TRACK 52 AUDIO
    TITLE "9:cjc113_2363"
    INDEX 01 01:02:73
  TRACK 53 AUDIO
    TITLE "0:"
    INDEX 01 01:04:54
  TRACK 54 AUDIO
    TITLE "10:cjc113_2364"
    INDEX 01 01:04:74
  TRACK 55 AUDIO
    TITLE "0:"
    INDEX 01 01:07:68
  TRACK 56 AUDIO
    TITLE "8:cjc113_2365"
    INDEX 01 01:08:38
  TRACK 57 AUDIO
    TITLE "0:"
    INDEX 01 01:09:59
  TRACK 58 AUDIO
    TITLE "9:cjc113_2366"
    INDEX 01 01:10:06
  TRACK 59 AUDIO
    TITLE "0:"
    INDEX 01 01:11:23
  TRACK 60 AUDIO
    TITLE "10:cjc113_2367"
    INDEX 01 01:11:45
  TRACK 61 AUDIO
    TITLE "0:"
    INDEX 01 01:15:07
  TRACK 62 AUDIO
    TITLE "8:cjc113_2368"
    INDEX 01 01:15:54
  TRACK 63 AUDIO
    TITLE "0:"
    INDEX 01 01:17:02
  TRACK 64 AUDIO
    TITLE "9:cjc113_2369"
    INDEX 01 01:17:26
  TRACK 65 AUDIO
    TITLE "0:"
    INDEX 01 01:19:05
  TRACK 66 AUDIO
    TITLE "10:cjc113_2370"
    INDEX 01 01:19:30
  TRACK 67 AUDIO
    TITLE "0:"
    INDEX 01 01:22:54
  TRACK 68 AUDIO
    TITLE "8:cjc113_2371"
    INDEX 01 01:23:24
  TRACK 69 AUDIO
    TITLE "0:"
    INDEX 01 01:24:36
  TRACK 70 AUDIO
    TITLE "9:cjc113_2372"
    INDEX 01 01:24:57
  TRACK 71 AUDIO
    TITLE "0:"
    INDEX 01 01:26:23
  TRACK 72 AUDIO
    TITLE "10:cjc113_2373"
    INDEX 01 01:26:48
  TRACK 73 AUDIO
    TITLE "0:"
    INDEX 01 01:29:54
  TRACK 74 AUDIO
    TITLE "8:cjc113_2374"
    INDEX 01 01:30:26
  TRACK 75 AUDIO
    TITLE "0:"
    INDEX 01 01:31:32
  TRACK 76 AUDIO
    TITLE "9:cjc113_2375"
    INDEX 01 01:31:55
  TRACK 77 AUDIO
    TITLE "0:"
    INDEX 01 01:33:15
  TRACK 78 AUDIO
    TITLE "10:cjc113_2376"
    INDEX 01 01:33:36
  TRACK 79 AUDIO
    TITLE "0:"
    INDEX 01 01:36:15
  TRACK 80 AUDIO
    TITLE "8:cjc113_2377"
    INDEX 01 01:36:64
  TRACK 81 AUDIO
    TITLE "0:"
    INDEX 01 01:37:73
  TRACK 82 AUDIO
    TITLE "9:cjc113_2378"
    INDEX 01 01:38:22
  TRACK 83 AUDIO
    TITLE "0:"
    INDEX 01 01:40:09
  TRACK 84 AUDIO
    TITLE "10:cjc113_2379"
    INDEX 01 01:40:25
  TRACK 85 AUDIO
    TITLE "0:"
    INDEX 01 01:44:17
